<?xml version="1.0" encoding="utf-8"?>
<!-- Generator: Adobe Illustrator 16.0.0, SVG Export Plug-In . SVG Version: 6.00 Build 0)  -->
<!DOCTYPE svg PUBLIC "-//W3C//DTD SVG 1.1//EN" "http://www.w3.org/Graphics/SVG/1.1/DTD/svg11.dtd" [
	<!ENTITY ns_extend "http://ns.adobe.com/Extensibility/1.0/">
	<!ENTITY ns_ai "http://ns.adobe.com/AdobeIllustrator/10.0/">
	<!ENTITY ns_graphs "http://ns.adobe.com/Graphs/1.0/">
	<!ENTITY ns_vars "http://ns.adobe.com/Variables/1.0/">
	<!ENTITY ns_imrep "http://ns.adobe.com/ImageReplacement/1.0/">
	<!ENTITY ns_sfw "http://ns.adobe.com/SaveForWeb/1.0/">
	<!ENTITY ns_custom "http://ns.adobe.com/GenericCustomNamespace/1.0/">
	<!ENTITY ns_adobe_xpath "http://ns.adobe.com/XPath/1.0/">
]>
<svg version="1.1" id="Layer_1" xmlns:x="&ns_extend;" xmlns:i="&ns_ai;" xmlns:graph="&ns_graphs;"
	 xmlns="http://www.w3.org/2000/svg" xmlns:xlink="http://www.w3.org/1999/xlink" x="0px" y="0px" width="800px" height="665px"
	 viewBox="0 0 800 665" enable-background="new 0 0 800 665" xml:space="preserve">
<metadata>
	<sfw  xmlns="&ns_sfw;">
		<slices></slices>
		<sliceSourceBounds  height="638.962" width="748.069" y="-302.969" x="-359.53" bottomLeftOrigin="true"></sliceSourceBounds>
	</sfw>
</metadata>
<polygon fill="#F4CAB1" points="241.009,271.667 206.493,219.066 271.848,135.667 400,135.667 523.833,153 599.167,219.066 
	585.167,281 388.864,289.657 "/>
<path fill="#FFFFFF" d="M261.786,298.335v-79.269l42.493-18.732L430.5,219.066l66-18.732c0,0,27.808,14.131,31.57,18.732
	s8.43,69.268,8.43,69.268l-43.229,41.333L417.853,279l-47.988,17.642l-28.418,28.702l-66.947-9.469L261.786,298.335z"/>
<path fill="#00FFC5" d="M611.879,578.194c0-40.733-93.456-73.774-208.74-73.774s-208.74,33.041-208.74,73.774
	s93.456,73.774,208.74,73.774S611.879,618.928,611.879,578.194z"/>
<g id="_x23_201f1fff">
	<path fill="#201F1F" d="M212.81,13.67c9.93-1.72,20.04,0.16,29.65,2.71c24.36,6.91,46.34,19.99,67.32,33.85
		c40.3-11.1,82.75-13.86,124.278-9.62c14.552,1.56,29.012,4,43.2,7.61c18.21-11.92,37.24-23,57.972-29.93
		c11.528-3.69,23.81-6.61,35.948-4.63c10.972,27.43,14.521,58.56,5.98,87.15c11.88,11.94,21.85,25.87,28.76,41.26
		c8.64,19.03,12.43,40.05,12.24,60.89c-0.15,25.54-1.42,51.38-8.13,76.16c54.488-2.08,109.41,0.35,163.01,10.88
		c-0.141,0.7-0.41,2.11-0.55,2.81c-53.71-10.52-108.73-12.94-163.32-10.77c-1.4,4.49-2.9,8.94-4.65,13.3
		c56.37,1.86,112.86,8.54,167.29,23.69c-0.188,0.68-0.568,2.05-0.75,2.74c-54.6-15.11-111.229-21.83-167.76-23.59
		c-5.67,12.82-13.609,24.69-23.729,34.42c-14.15,13.75-31.95,23.179-50.44,29.66c-22.45,7.801-46.03,11.961-69.649,14.17
		c-25.811,1.1-51.659,1-77.5,0.95c-10.29-0.159-20.601-0.11-30.881-0.75c-6.028-0.96-12.17,0.091-18.199-0.909
		c-32.041-4.07-64.379-11.541-92.5-28.021c-20.14-11.71-37.18-28.82-48.12-49.45c-55.71,1.91-111.52,8.61-165.33,23.52
		c-0.19-0.68-0.57-2.06-0.76-2.74c53.56-14.93,109.12-21.6,164.59-23.6c-2.16-4.43-4.14-8.95-5.93-13.54
		C131.57,280,77.9,282.54,25.5,292.81c-0.13-0.7-0.4-2.11-0.53-2.81c52.21-10.27,105.69-12.82,158.79-11.03
		c-6.93-19.92-10.05-40.98-10.92-62c-0.71-15.05-0.6-30.28,2.55-45.08c4.8-24.26,16.85-46.82,33.62-64.92
		C197.73,76.93,201.07,43.04,212.81,13.67 M272.92,189.86c-11.68,5.17-20.75,14.66-28.34,24.69c-8.63,11.83-14.9,26.11-14.67,40.96
		c-0.51,20.79,3.55,42.56,15.7,59.85c10.43,15.04,26.43,25.371,43.41,31.63c23.94,8.89,49.61,11.67,74.96,13.029
		c23.988,1.121,48.02,0.84,72.02,0.279c24.21-0.908,48.83-2.59,71.9-10.578c15.72-5.4,30.46-14.9,40-28.73
		c11.22-15.99,15.278-35.81,16.13-55.02c0.05-4.01,0.778-8.09-0.13-12.05c0.318-13.12-5.312-25.71-12.4-36.49
		c-8.62-12.22-19.5-23.81-33.83-29.11c-15.76-5.99-32.979-6.15-49.6-5.36c-12.052,0.03-24.03,1.56-36.07,2.1
		c-23.61,1.81-47.38,1.72-70.99-0.02c-17.31-1.09-34.62-2.73-51.99-2.14C296.72,182.95,284.22,184.84,272.92,189.86z"/>
	<path fill="#201F1F" d="M157.98,363.029c6.56-2.639,13.94-2.059,20.7-0.529c13.09,3.23,24.54,11.46,33.09,21.74
		c5.3,6.199,8.76,13.72,13.96,20.01c9,11.42,21.84,20.09,36.28,22.66c16.05,3.07,32.52-0.771,47.312-7.102
		c-0.54,1.892-0.98,3.82-1.33,5.771c-2.93,0.14-7.05,0.85-7.42,4.46c-0.08,3.39,3.94,3.82,6.43,4.34
		c-0.479,8.65-0.55,17.36,0.6,25.96c-19.319,3.72-39.77,5.17-58.74-1.09c-15.76-5.01-29.36-15.75-38.72-29.3
		c-7.76-11.11-12.91-23.92-21.79-34.261c-5.54-6.649-12.64-11.851-20.39-15.629c-4.93-2.69-10.52-5.33-13.34-10.44
		C153.11,366.859,155.38,363.93,157.98,363.029 M183.14,370.109c-3.94,3.611,5.31,8.681,6.86,3.83
		C190,370.73,185.85,368.73,183.14,370.109 M196.43,378.311c-5.75,2.439,2.13,11.271,6.04,7.199
		C204.31,381.95,200.06,377.75,196.43,378.311 M208.17,392.09c-4.72,3.439,1.51,12.602,6.49,9.49
		C217.94,397.69,212.98,390.38,208.17,392.09 M220.37,409.35c-3.34,4.53,3.41,11.95,8.22,9.04
		C232.54,413.95,225.16,405.87,220.37,409.35 M236.33,424.58c-4.45,5.438,7.41,12.15,10.28,6.06
		C247.44,425.63,240.3,421.8,236.33,424.58 M258.1,431.13c-2.15,0.73-3.19,3.63-1.56,5.39c2.63,3.36,9.71,4.012,11.29-0.608
		C267.88,431.3,261.7,429.52,258.1,431.13 M281.52,431.63c-1.7,0.68-3.32,2.4-2.83,4.37c1.84,5.05,11.65,4.66,12.14-1.04
		C289.97,431.01,284.71,430.24,281.52,431.63z"/>
	<path fill="#201F1F" d="M324.09,390.189c13.04-4.92,27.04-6.08,40.852-6.83c17.988-0.879,36.04-1.159,54.05-0.59
		c17.92,0.899,37.26,3.681,51.21,15.999c7.608,6.342,11.979,15.342,16.93,23.69c1.102,5.42,1.25,11.04,1.42,16.58
		c0.03,23.979,0,47.95,0.021,71.93c0.46,9.722-1.472,19.88,2.25,29.17c3,8.17,8.77,15.62,16.81,19.312
		c3.5,1.52,7.15,3.77,8.32,7.648c0.64,1.94-0.642,3.78-1.72,5.29c-2.28,1.03-4.69,1.91-7.222,1.87c-9.87,0.04-19.87-1.31-29.09-4.96
		c-7.18-2.91-13.86-7.51-18.27-13.97c-4.521-6.48-6.41-14.45-6.54-22.26c-0.13-8.82-0.012-17.631-0.052-26.44
		c0-14.22-0.01-28.439,0.012-42.649c0.01-7.449-0.682-14.949-2.66-22.149c-1.55-5.34-3.72-10.86-8.2-14.42
		c-0.62,26.1-0.1,52.24-0.27,78.35c-0.03,15.41,0.068,30.82-0.052,46.221c-0.21,9.199,0.392,18.909,5.03,27.091
		c2.03,3.81,5.91,5.938,9.17,8.55c1.34,2.398,2.43,5.3,1.33,8.01c-0.75,2.24-2.88,3.521-4.83,4.602
		c-1.858,0.368-3.72,0.658-5.6,0.85c-10.61-1.48-20.972-5.65-29.41-12.29c-5.29-4.33-9.62-9.95-11.86-16.44
		c-1.91-5.229-2.22-10.858-2.17-16.38c0.142-17.18,0.04-34.358,0.07-51.55c-0.07-27.15,0.14-54.3,0.03-81.45
		c0.42-3.56-3.19-6.41-6.57-5.13c-2.73,0.65-2.82,3.84-2.8,6.09c0.1,26.86-0.021,53.722-0.03,80.58c0.01,16.5-0.01,33.01,0.01,49.51
		c0.76,12.812-3.49,26.302-13.6,34.66c-9.59,7.98-22.021,12.45-34.48,12.602l-0.47-0.21c-1.85-0.932-4.13-1.7-4.96-3.79
		c-1.51-3.25-0.17-6.87,1.5-9.771c3.25-2.87,7.54-4.67,9.89-8.479c3.44-5.33,3.842-11.9,3.92-18.062c0-18.25-0.01-36.51,0-54.77
		c-0.148-26.57,0.302-53.15-0.229-79.71c-8.44,6.22-9.63,17.75-10.65,27.41c-0.55,17.75-0.09,35.52-0.238,53.278
		c-0.04,8.63,0.068,17.262-0.04,25.892c-0.131,7.6-1.91,15.34-6.19,21.729c-4.34,6.63-11.06,11.38-18.32,14.37
		c-11.02,4.44-23.109,5.58-34.89,4.87c-2.01-1.15-4.7-2.37-4.68-5.09c-0.11-4.74,4.42-7.471,8.32-8.91
		c9.81-3.78,17.99-12.37,19.7-22.94c1.16-8.33,0.36-16.778,0.59-25.158c0.021-17.422-0.02-34.842,0.012-52.262
		c0.34-13.75-0.131-27.6,2.158-41.21c2.132-10.16,6.472-19.75,12.41-28.248L324.09,390.189z"/>
</g>
<g id="_x23_c49b86ff">
	<path fill="#C49B86" d="M272.92,189.86c11.3-5.02,23.8-6.91,36.1-6.96c17.37-0.59,34.682,1.05,51.99,2.14
		c23.61,1.74,47.38,1.83,70.99,0.02c12.04-0.54,24.02-2.07,36.07-2.1c16.62-0.79,33.84-0.63,49.6,5.36
		c14.33,5.3,25.21,16.89,33.83,29.11c7.09,10.78,12.72,23.37,12.4,36.49c-1.75-6.31-3.23-12.75-6.07-18.7
		c-5.2-11.37-13.16-21.31-22.37-29.69c-12.96-12.09-31.32-15.63-48.49-15.82c-27.41-0.23-54.568,4.37-81.96,4.87
		c-23.42,0.67-46.75-1.85-70.06-3.7c-13.91-0.99-27.96-1.85-41.85-0.04c-11.36,1.46-22.76,5.12-31.78,12.4
		c-8.09,6.63-15.07,14.64-20.59,23.52c-5.6,8.72-8.62,18.71-10.82,28.75c-0.23-14.85,6.04-29.13,14.67-40.96
		C252.17,204.52,261.24,195.03,272.92,189.86z"/>
</g>
<g id="_x23_f4cab1ff">
	<path fill="#F4CAB1" d="M293.1,190.84c13.89-1.81,27.94-0.95,41.85,0.04c23.31,1.85,46.64,4.37,70.06,3.7
		c27.392-0.5,54.55-5.1,81.96-4.87c17.17,0.19,35.53,3.73,48.49,15.82c9.21,8.38,17.17,18.32,22.37,29.69
		c2.84,5.95,4.32,12.39,6.07,18.7c0.908,3.96,0.18,8.04,0.13,12.05c-0.852,19.21-4.91,39.03-16.13,55.02
		c-9.54,13.83-24.28,23.33-40,28.73c-23.07,7.988-47.69,9.67-71.9,10.578c-24,0.561-48.03,0.842-72.02-0.279
		c-25.352-1.359-51.021-4.141-74.96-13.029c-16.98-6.26-32.98-16.59-43.41-31.63c-12.15-17.29-16.21-39.06-15.7-59.85
		c2.2-10.04,5.22-20.03,10.82-28.75c5.52-8.88,12.5-16.89,20.59-23.52C270.34,195.96,281.74,192.3,293.1,190.84 M299.34,213.49
		c-9.37,2.92-16.34,10.73-20.71,19.24c-6.9,13.76-8.35,29.93-5.19,44.91c2.49,11.3,7.89,22.53,17.33,29.61
		c6.61,5.07,15.68,6.98,23.64,4.26c9.56-3.18,16.53-11.4,20.8-20.23c6.66-14.09,7.85-30.5,4.22-45.58
		c-2.66-10.74-8.068-21.3-17.13-27.98C315.84,212.87,307.11,211.01,299.34,213.49 M486.23,213.41
		c-9.602,2.86-16.722,10.89-21.12,19.6c-7.021,14.24-8.312,31-4.642,46.35c2.69,10.98,8.29,21.81,17.7,28.45
		c6.8,4.91,16.04,6.42,23.92,3.32c9.4-3.59,16.142-11.94,20.23-20.88c6.409-14.31,7.358-30.87,3.358-45.97
		c-2.81-10.37-8.27-20.5-17.17-26.85C502.19,212.84,493.77,211.1,486.23,213.41 M393.33,299.43c-5.93,2.87-5.96,12.4-0.062,15.31
		c5.49,3.38,13.36-1.26,12.962-7.73C406.47,300.66,398.77,296.16,393.33,299.43 M379.42,325.4c-1.56,0.18-2.82,1.98-2.24,3.48
		c2.2,7.091,8.552,12.62,15.79,14.13c10.25,2.42,21.7-4.029,24.74-14.14c0.9-2.52-2.68-4.71-4.53-2.8
		c-1.97,3.28-3.54,7.06-7.01,9.081c-7.1,5.07-18.18,2.57-22.24-5.189C382.73,328.25,382.12,324.96,379.42,325.4z"/>
</g>
<g id="_x23_ffffffff">
	<path fill="#FFFFFF" d="M299.34,213.49c7.771-2.48,16.5-0.62,22.96,4.23c9.062,6.68,14.47,17.24,17.13,27.98
		c3.63,15.08,2.44,31.49-4.22,45.58c-4.27,8.83-11.24,17.05-20.8,20.23c-7.96,2.72-17.03,0.81-23.64-4.26
		c-9.44-7.08-14.84-18.31-17.33-29.61c-3.16-14.98-1.71-31.15,5.19-44.91C283,224.22,289.97,216.41,299.34,213.49 M304.41,230.65
		c-5.96,2.08-10.38,7.11-13.21,12.59c-4.61,9.07-5.56,19.75-3.58,29.65c1.51,7.12,4.75,14.15,10.3,19.01
		c4.01,3.57,9.61,5.52,14.96,4.45c6.23-1.15,11.21-5.79,14.4-11.05c5.479-9.14,6.84-20.37,5-30.76
		c-1.512-7.99-5.13-16.01-11.73-21.06C316.06,229.98,309.83,228.71,304.41,230.65z"/>
	<path fill="#FFFFFF" d="M486.23,213.41c7.538-2.31,15.96-0.57,22.278,4.02c8.9,6.35,14.36,16.48,17.17,26.85
		c4,15.1,3.052,31.66-3.358,45.97c-4.09,8.94-10.83,17.29-20.23,20.88c-7.88,3.1-17.12,1.59-23.92-3.32
		c-9.41-6.64-15.01-17.47-17.7-28.45c-3.67-15.35-2.38-32.11,4.642-46.35C469.51,224.3,476.63,216.27,486.23,213.41 M484.42,230.6
		c-5.5,1.87-9.74,6.29-12.58,11.23c-4.63,8.14-6.06,17.85-4.99,27.08c0.94,7.91,3.892,15.85,9.512,21.65
		c3.948,4.13,9.76,6.78,15.55,5.92c6.63-0.87,11.979-5.74,15.31-11.29c5.36-9.01,6.73-20.02,5-30.26
		c-1.449-8.1-5.068-16.24-11.71-21.38C496.04,230.03,489.84,228.72,484.42,230.6z"/>
	<path fill="#FFFFFF" d="M296.44,242.51c3.82-2.65,9.7,0.04,10.16,4.67c0.94,4.81-4.458,9.15-8.97,7.2
		C292.62,252.74,291.89,245.12,296.44,242.51z"/>
	<path fill="#FFFFFF" d="M480.44,242.56c4.02-1.71,8.818,2.14,7.988,6.44c-0.42,4.33-6.1,6.68-9.46,3.93
		C475.22,250.39,476.14,243.95,480.44,242.56z"/>
</g>
<g id="_x23_ac5c51ff">
	<path fill="#AC5C51" d="M304.41,230.65c5.42-1.94,11.648-0.67,16.14,2.83c6.602,5.05,10.22,13.07,11.73,21.06
		c1.84,10.39,0.479,21.62-5,30.76c-3.19,5.26-8.17,9.9-14.4,11.05c-5.35,1.07-10.95-0.88-14.96-4.45
		c-5.55-4.86-8.79-11.89-10.3-19.01c-1.98-9.9-1.03-20.58,3.58-29.65C294.03,237.76,298.45,232.73,304.41,230.65 M296.44,242.51
		c-4.55,2.61-3.82,10.23,1.19,11.87c4.51,1.95,9.91-2.39,8.97-7.2C306.14,242.55,300.26,239.86,296.44,242.51z"/>
	<path fill="#AC5C51" d="M484.42,230.6c5.42-1.88,11.62-0.57,16.09,2.95c6.642,5.14,10.26,13.28,11.71,21.38
		c1.73,10.24,0.36,21.25-5,30.26c-3.33,5.55-8.68,10.42-15.31,11.29c-5.79,0.86-11.602-1.79-15.55-5.92
		c-5.62-5.8-8.57-13.74-9.512-21.65c-1.068-9.23,0.36-18.94,4.99-27.08C474.68,236.89,478.92,232.47,484.42,230.6 M480.44,242.56
		c-4.302,1.39-5.222,7.83-1.472,10.37c3.36,2.75,9.04,0.4,9.46-3.93C489.26,244.7,484.46,240.85,480.44,242.56z"/>
	<path fill="#AC5C51" d="M393.33,299.43c5.438-3.27,13.14,1.23,12.9,7.58c0.398,6.47-7.472,11.11-12.962,7.73
		C387.37,311.83,387.4,302.3,393.33,299.43z"/>
	<path fill="#AC5C51" d="M379.42,325.4c2.7-0.44,3.312,2.85,4.51,4.56c4.062,7.761,15.142,10.261,22.24,5.19
		c3.47-2.021,5.04-5.8,7.01-9.082c1.852-1.91,5.432,0.28,4.53,2.8c-3.04,10.109-14.49,16.561-24.74,14.14
		c-7.238-1.51-13.59-7.038-15.79-14.13C376.6,327.38,377.86,325.58,379.42,325.4z"/>
</g>
<g id="_x23_9cdaf0ff">
	<path fill="#00FFC5" d="M183.14,370.109c2.71-1.379,6.86,0.621,6.86,3.83C188.45,378.79,179.2,373.721,183.14,370.109z"/>
	<path fill="#00FFC5" d="M196.43,378.311c3.63-0.561,7.88,3.641,6.04,7.199C198.56,389.58,190.68,380.75,196.43,378.311z"/>
	<path fill="#00FFC5" d="M156.22,399.09c1.95-6.97,3.99-13.91,5.97-20.869c1.96,6.93,4.02,13.829,5.93,20.779
		c0.7,2.64,0.71,5.8-1.06,8.05c-1.96,2.26-5.65,2.82-8.14,1.102C155.91,406.32,155.27,402.24,156.22,399.09z"/>
	<path fill="#00FFC5" d="M208.17,392.09c4.81-1.71,9.77,5.602,6.49,9.49C209.68,404.69,203.45,395.529,208.17,392.09z"/>
	<path fill="#00FFC5" d="M220.37,409.35c4.79-3.479,12.17,4.602,8.22,9.04C223.78,421.3,217.03,413.88,220.37,409.35z"/>
	<path fill="#00FFC5" d="M236.33,424.58c3.97-2.78,11.11,1.05,10.28,6.06C243.74,436.73,231.88,430.02,236.33,424.58z"/>
	<path fill="#00FFC5" d="M300.57,430.04c0.37-3.61,4.49-4.32,7.42-4.46c-0.432,2.92-0.771,5.86-0.99,8.8
		C304.51,433.86,300.49,433.43,300.57,430.04z"/>
	<path fill="#00FFC5" d="M258.1,431.13c3.6-1.61,9.78,0.17,9.73,4.78c-1.58,4.62-8.66,3.97-11.29,0.608
		C254.91,434.76,255.95,431.86,258.1,431.13z"/>
	<path fill="#00FFC5" d="M281.52,431.63c3.19-1.39,8.45-0.62,9.31,3.33c-0.49,5.7-10.3,6.09-12.14,1.04
		C278.2,434.03,279.82,432.31,281.52,431.63z"/>
	<path fill="#00FFC5" d="M394.25,504.51c3.12-0.05,6.25-0.08,9.37-0.09c-0.03,17.19,0.07,34.37-0.07,51.55
		c-0.05,5.521,0.26,11.15,2.17,16.38c2.24,6.49,6.57,12.11,11.86,16.44c-6.74,8.5-10.89,18.83-12.11,29.6
		c-1.229,11.11-0.63,22.312-0.81,33.46c-6.271-0.539-12.55,0.17-18.82-0.148c2.51-0.11,5.021-0.32,7.53-0.53
		c-0.05-15.6,1.52-31.76-3.771-46.75c-1.92-5.79-5.14-11.02-8.938-15.74c10.108-8.358,14.358-21.85,13.6-34.659
		C394.24,537.52,394.26,521.01,394.25,504.51z"/>
	<path fill="#00FFC5" d="M344.94,507.18c3.698-0.37,7.408-0.68,11.118-0.979c-0.01,18.26,0,36.52,0,54.77
		c-0.078,6.16-0.479,12.73-3.92,18.062c-2.35,3.81-6.64,5.608-9.89,8.479c-2.521-3.35-5.03-6.778-8.22-9.528
		c-4.09-3.592-8.972-6.092-13.642-8.812c7.262-2.99,13.98-7.74,18.32-14.37c4.28-6.39,6.06-14.13,6.19-21.729
		C345.01,524.44,344.9,515.81,344.94,507.18z"/>
	<path fill="#00FFC5" d="M441.94,505.76c3.71,0.271,7.408,0.57,11.118,0.87c0.04,8.812-0.078,17.62,0.052,26.44
		c0.13,7.81,2.02,15.778,6.54,22.26c4.408,6.46,11.09,11.06,18.27,13.97c-4.71,3.15-9.97,5.55-14.14,9.45
		c-2.9,2.66-5.29,5.79-7.69,8.87c-3.26-2.61-7.14-4.74-9.17-8.55c-4.64-8.182-5.24-17.892-5.03-27.09
		C442.01,536.58,441.91,521.17,441.94,505.76z"/>
	<path fill="#00FFC5" d="M488.57,510.97c23.448,3.78,46.76,9.142,68.988,17.66c14.53,5.74,28.95,12.66,40.65,23.2
		c7.14,6.52,13.3,15.189,13.67,25.18c0.47,9.74-4.92,18.65-11.609,25.3c-10.109,9.99-22.891,16.73-35.811,22.37
		c-24.13,10.21-49.82,16.21-75.62,20.432c0.21-11.71,0.01-23.42-0.06-35.131c-0.25-10.979,4.729-22.039,13.21-29.029
		c3.8-3.29,9.39-4.17,12.24-8.562c1.078-1.51,2.358-3.35,1.72-5.29c-1.17-3.88-4.82-6.13-8.32-7.648
		c-8.04-3.69-13.81-11.142-16.81-19.312C487.1,530.85,489.03,520.69,488.57,510.97z"/>
	<path fill="#00FFC5" d="M240.12,531.14c22.18-9.3,45.67-15.05,69.31-19.198c-0.229,8.38,0.57,16.828-0.59,25.158
		c-1.71,10.57-9.89,19.16-19.7,22.94c-3.9,1.44-8.43,4.17-8.32,8.91c-0.02,2.72,2.67,3.938,4.68,5.09
		c4.82,2.87,10.07,5.34,13.93,9.53c6.36,6.79,10.15,16.06,9.98,25.398c-0.142,11.762-0.01,23.521-0.25,35.28
		c-23.88-4.47-47.72-10.11-70.11-19.72c-12.56-5.5-24.96-12.07-34.9-21.66c-6.73-6.53-12.28-15.22-12.19-24.9
		c-0.02-9.89,5.8-18.67,12.74-25.25C214.86,543.16,227.4,536.61,240.12,531.14z"/>
	<path fill="#00FFC5" d="M345.71,601.07l0.47,0.21c0.21,0.25,0.65,0.76,0.86,1.01c1.05-0.18,3.16-0.55,4.21-0.74
		c6.58,15.25,4.52,32.16,4.6,48.29c-3.67-0.21-7.33-0.59-10.988-0.84c-0.16-13.66,0.148-27.32-0.021-40.98
		C344.79,605.67,344.99,603.3,345.71,601.07z"/>
	<path fill="#00FFC5" d="M446.99,601.08c1.88-0.19,3.74-0.48,5.6-0.85c0.392,2.568,0.78,5.158,0.79,7.77
		c-0.148,13.85,0.11,27.69-0.04,41.54c-2.82,0.1-5.63,0.49-8.45,0.49c-0.648-0.03-1.938-0.102-2.59-0.13
		c-0.068-7.65-0.09-15.29-0.14-22.92C442.11,618.12,444.21,609.43,446.99,601.08z"/>
</g>
<g id="_x23_000000ff">
	<path d="M324.09,390.189c3.8-5.239,8.53-9.819,13.86-13.489c4.38,0.18,8.77,0.159,13.148-0.07c10.28,0.64,20.592,0.591,30.882,0.75
		c25.84,0.05,51.688,0.149,77.5-0.95c15.25,10.42,25.488,27.74,27.648,46.03c-4.95-8.35-9.32-17.35-16.93-23.69
		c-13.95-12.318-33.29-15.1-51.21-16c-18.011-0.568-36.062-0.289-54.05,0.59C351.13,384.109,337.13,385.27,324.09,390.189z"/>
	<path d="M309.32,419.81c0.568-0.34,1.71-1.01,2.278-1.34c-2.29,13.61-1.818,27.46-2.158,41.21l-1.842,0.66
		c-1.148-8.6-1.08-17.31-0.6-25.96c0.22-2.938,0.56-5.88,0.99-8.8C308.34,423.63,308.78,421.7,309.32,419.81z"/>
</g>
<g id="_x23_7cbae6ff">
	<path fill="#03D69F" d="M285.5,574.04c11.78,0.71,23.87-0.43,34.89-4.87c4.67,2.72,9.552,5.22,13.642,8.811
		c3.188,2.75,5.7,6.181,8.22,9.529c-1.67,2.9-3.01,6.521-1.5,9.771c0.83,2.09,3.11,2.858,4.96,3.79c-0.72,2.229-0.92,4.6-0.87,6.948
		c0.17,13.66-0.14,27.32,0.021,40.98c-11.96-0.96-23.892-2.62-35.7-4.75c0.24-11.76,0.109-23.521,0.25-35.28
		c0.17-9.34-3.62-18.608-9.98-25.398C295.57,579.38,290.32,576.91,285.5,574.04z"/>
	<path fill="#03D69F" d="M477.92,569.3c9.22,3.65,19.22,5,29.09,4.96c2.53,0.04,4.94-0.84,7.222-1.87
		c-2.852,4.392-8.44,5.271-12.24,8.562c-8.48,6.99-13.46,18.05-13.21,29.03c0.068,11.71,0.27,23.42,0.06,35.13
		c-11.77,1.948-23.62,3.43-35.5,4.43c0.15-13.85-0.108-27.69,0.04-41.54c-0.01-2.61-0.398-5.2-0.79-7.77
		c1.95-1.08,4.08-2.36,4.83-4.602c1.101-2.71,0.01-5.61-1.33-8.01c2.4-3.08,4.79-6.21,7.69-8.87
		C467.95,574.85,473.21,572.45,477.92,569.3z"/>
	<path fill="#03D69F" d="M346.18,601.28c12.46-0.15,24.892-4.62,34.48-12.602c3.8,4.722,7.02,9.95,8.938,15.74
		c5.29,14.99,3.722,31.15,3.771,46.75c-2.51,0.21-5.021,0.42-7.53,0.53c-10-0.53-20.03-0.63-30-1.72l0.01-0.142
		c-0.08-16.13,1.98-33.04-4.6-48.29c-1.05,0.19-3.16,0.562-4.21,0.74C346.83,602.04,346.39,601.53,346.18,601.28z"/>
	<path fill="#03D69F" d="M417.58,588.79c8.438,6.64,18.8,10.81,29.41,12.29c-2.78,8.35-4.88,17.04-4.83,25.9
		c0.05,7.63,0.07,15.27,0.14,22.92c0.65,0.028,1.94,0.1,2.59,0.13c-4.55,0.95-9.22,0.87-13.84,1.068
		c-8.78,0.7-17.59,1.08-26.39,0.75c0.18-11.148-0.42-22.35,0.81-33.46C406.69,607.62,410.84,597.29,417.58,588.79z"/>
</g>
</svg>
