<?xml version="1.0" encoding="UTF-8" standalone="no"?>
<svg width="16px" height="19px" viewBox="0 0 16 19" version="1.1" xmlns="http://www.w3.org/2000/svg" xmlns:xlink="http://www.w3.org/1999/xlink" xmlns:sketch="http://www.bohemiancoding.com/sketch/ns">
    <!-- Generator: Sketch 3.0.1 (7597) - http://www.bohemiancoding.com/sketch -->
    <title>Slice 1</title>
    <description>Created with Sketch.</description>
    <defs></defs>
    <g id="Page-1" stroke="none" stroke-width="1" fill="none" fill-rule="evenodd" sketch:type="MSPage">
        <path d="M6.44869565,1.13888672 C6.98947368,0.758886719 7.52768879,0.375546875 8.07139588,-1.77635684e-15 C8.07176201,0.2375 8.07102975,0.474628906 8.06919908,0.712128906 C8.06846682,0.772988281 8.06810069,0.833847656 8.06846682,0.894707031 C8.06956522,1.08210937 8.06919908,1.26951172 8.06810069,1.45691406 C8.06773455,1.51666016 8.06773455,1.57677734 8.06773455,1.63689453 C8.06773455,1.82355469 8.06736842,2.01058594 8.06663616,2.19724609 C8.06590389,2.25773437 8.06590389,2.31822266 8.06590389,2.37908203 C8.06627002,2.50636719 8.06627002,2.63365234 8.06443936,2.7609375 C8.33244851,2.766875 8.60045767,2.77875 8.86700229,2.81066406 C8.97830664,2.82105469 9.08961098,2.83478516 9.20018307,2.85222656 C9.33199085,2.87449219 9.46416476,2.89527344 9.59524027,2.92236328 C9.641373,2.93238281 9.68787185,2.94314453 9.73473684,2.95353516 C9.8808238,2.98544922 10.0265446,3.02107422 10.1708009,3.06189453 C10.2202288,3.07673828 10.2696568,3.09158203 10.3190847,3.10679687 C10.4563844,3.14835937 10.5933181,3.19289062 10.7280549,3.24261719 C10.7741876,3.26005859 10.8206865,3.27824219 10.8668192,3.29605469 C10.9942334,3.34503906 11.1209153,3.39550781 11.2446682,3.45339844 C11.2886041,3.47380859 11.3329062,3.49421875 11.3768421,3.515 C11.4947368,3.57066406 11.6115332,3.62892578 11.7264989,3.69015625 C11.7693364,3.71279297 11.8118078,3.73580078 11.8542792,3.75880859 C11.9718078,3.82337891 12.0853089,3.895 12.2002746,3.96476562 C12.2365217,3.98777344 12.273135,4.01078125 12.3097483,4.03416016 C12.4225172,4.10615234 12.5338215,4.18037109 12.6414645,4.25978516 C12.675881,4.28539062 12.7106636,4.310625 12.7454462,4.33623047 C12.8593135,4.42009766 12.9691533,4.50916016 13.078627,4.59933594 C13.0907094,4.60972656 13.1148741,4.62976562 13.1269565,4.64015625 C13.2342334,4.73181641 13.3404119,4.82496094 13.4432952,4.92144531 C13.475881,4.951875 13.5081007,4.98304687 13.5403204,5.01421875 C13.6333181,5.10291016 13.7244851,5.19419922 13.8112586,5.28957031 C13.8394508,5.32 13.867643,5.35042969 13.8962014,5.38123047 C13.9870023,5.47808594 14.0719451,5.58050781 14.157254,5.6821875 C14.1832494,5.71373047 14.2088787,5.74527344 14.234508,5.7771875 C14.3168879,5.88257812 14.3996339,5.98833984 14.477254,6.0978125 C14.5069108,6.14011719 14.5365675,6.18279297 14.5665904,6.22546875 C14.6401831,6.32677734 14.7086499,6.43216797 14.7741876,6.53941406 C14.8012815,6.58357422 14.8283753,6.62773437 14.8554691,6.67189453 C14.9191762,6.77617187 14.979222,6.88304687 15.0374371,6.99066406 C15.0612357,7.03519531 15.0850343,7.07972656 15.1084668,7.12462891 C15.1718078,7.24783203 15.2340503,7.37140625 15.2893364,7.49832031 C15.3069108,7.53802734 15.3248513,7.57810547 15.3427918,7.61818359 C15.4024714,7.75066406 15.4540961,7.88685547 15.5064531,8.02267578 C15.5210984,8.06201172 15.5353776,8.10097656 15.5496568,8.14068359 C15.5990847,8.28615234 15.6492449,8.43162109 15.6902517,8.5796875 C15.7034325,8.62681641 15.7166133,8.67394531 15.7305263,8.72144531 C15.7708009,8.86208984 15.8030206,9.00533203 15.834508,9.14857422 C15.8487872,9.21574219 15.861968,9.28328125 15.8747826,9.35119141 C15.9015103,9.49369141 15.9271396,9.6365625 15.9443478,9.78054687 C15.9513043,9.83695312 15.9582609,9.89298828 15.9659497,9.94939453 C15.9868192,10.1234375 15.9981693,10.2982227 16.0084211,10.4730078 C16.0102517,10.5327539 16.0120824,10.5925 16.013913,10.6522461 C16.0216018,10.8403906 16.0175744,11.0285352 16.010984,11.2163086 C16.0084211,11.2764258 16.0051259,11.336543 16.0014645,11.3970312 C15.9893822,11.5814648 15.9736384,11.7658984 15.9469108,11.9492188 C15.9351945,12.0397656 15.9234783,12.1303125 15.9091991,12.2208594 C15.8696568,12.4520508 15.8213272,12.6821289 15.7642105,12.9096094 C15.7411442,12.9949609 15.7173455,13.0803125 15.6950114,13.1660352 C15.6115332,13.4506641 15.5123112,13.7304688 15.3999085,14.004707 C15.343524,14.1360742 15.2849428,14.2666992 15.2267277,14.3973242 C15.0048513,14.8574805 14.7427002,15.2975977 14.441373,15.7087695 C13.977849,16.3403711 13.4238902,16.9014648 12.8043936,17.3757227 C12.388833,17.6911523 11.9428833,17.9639063 11.4767963,18.1954687 C11.3665904,18.2444531 11.2567506,18.2941797 11.147643,18.3453906 C9.321373,19.1443555 7.19816934,19.2092969 5.32723112,18.5268555 C5.28146453,18.5101563 5.23569794,18.493457 5.19066362,18.4756445 C5.05812357,18.4210937 4.92302059,18.3728516 4.79377574,18.3105078 C4.75496568,18.2923242 4.71615561,18.2745117 4.67734554,18.2566992 C4.55981693,18.2058594 4.44631579,18.1453711 4.33281465,18.085625 C4.27935927,18.057793 4.22590389,18.030332 4.17318078,18.0017578 C4.06736842,17.9412695 3.96155606,17.8811523 3.85757437,17.8173242 C3.81437071,17.7894922 3.77116705,17.7612891 3.72796339,17.733457 C3.62251716,17.665918 3.51707094,17.5976367 3.41675057,17.5223047 C3.37537757,17.4922461 3.33327231,17.4629297 3.29189931,17.4332422 C3.18645309,17.3597656 3.08869565,17.2755273 2.98800915,17.1957422 C2.95359268,17.1679102 2.91990847,17.1400781 2.88622426,17.111875 C2.79249428,17.0302344 2.6976659,16.949707 2.60723112,16.8643555 C2.56659039,16.8253906 2.52594966,16.7864258 2.48530892,16.7482031 C2.3978032,16.6676758 2.31469108,16.5830664 2.23524027,16.4951172 C2.20265446,16.4602344 2.17043478,16.4260937 2.13784897,16.3919531 C2.04704805,16.2958398 1.96283753,16.193418 1.87679634,16.0928516 C1.84750572,16.0579688 1.81894737,16.0227148 1.79075515,15.9870898 C1.71130435,15.8850391 1.62929062,15.7848438 1.55533181,15.6787109 C1.52530892,15.635293 1.49528604,15.591875 1.46489703,15.5491992 C1.39167048,15.4478906 1.32320366,15.3432422 1.25729977,15.2367383 C1.23020595,15.1929492 1.202746,15.1499023 1.17601831,15.1064844 C1.11157895,15.0025781 1.05263158,14.895332 0.992951945,14.7888281 C0.968421053,14.7435547 0.944622426,14.6982812 0.920823799,14.6530078 C0.85784897,14.5290625 0.794508009,14.4051172 0.738489703,14.277832 C0.720549199,14.2377539 0.702608696,14.1980469 0.684668192,14.1583398 C0.624622426,14.0266016 0.572997712,13.8911523 0.521372998,13.7560742 C0.505263158,13.7141406 0.489519451,13.672207 0.474508009,13.6302734 C0.428375286,13.4951953 0.380778032,13.3604883 0.341601831,13.2231836 C0.325858124,13.1675195 0.310114416,13.1118555 0.294370709,13.0561914 C0.252997712,12.9162891 0.221144165,12.7737891 0.190022883,12.6312891 C0.175377574,12.5641211 0.162196796,12.4969531 0.149016018,12.4294141 C0.121922197,12.2876562 0.095194508,12.1458984 0.0783524027,12.0026562 C0.0710297483,11.9440234 0.0633409611,11.8857617 0.0560183066,11.8275 C0.0333180778,11.6623633 0.0263615561,11.4957422 0.0128146453,11.3298633 C0.0117162471,11.3187305 0.00988558352,11.2960937 0.00878718535,11.2845898 C0.00219679634,11.1491406 0.00439359268,11.0136914 0,10.8782422 L0.26215103,10.8782422 C0.321830664,10.8786133 0.381510297,10.8786133 0.441556064,10.8782422 C0.624988558,10.8782422 0.808421053,10.8778711 0.99221968,10.8786133 L1.17272311,10.8786133 C1.35688787,10.8782422 1.54105263,10.8778711 1.72521739,10.8786133 C1.78562929,10.8786133 1.84604119,10.8786133 1.90645309,10.8782422 C2.01995423,10.8782422 2.13382151,10.8760156 2.24768879,10.8804687 C2.25244851,11.0764063 2.2601373,11.2723437 2.2802746,11.467168 C2.28832952,11.5573437 2.30114416,11.6467773 2.31359268,11.736582 C2.32091533,11.787793 2.32933638,11.8386328 2.3384897,11.8898437 C2.36448513,12.0419922 2.39707094,12.1922852 2.43441648,12.3418359 C2.44832952,12.3975 2.46370709,12.4524219 2.4794508,12.5077148 C2.5197254,12.6472461 2.56585812,12.785293 2.61565217,12.9218555 C2.63176201,12.9641602 2.64823799,13.0064648 2.66508009,13.0487695 C2.71816934,13.1823633 2.77601831,13.3144727 2.83826087,13.4443555 C2.85656751,13.4818359 2.87560641,13.5189453 2.89501144,13.5567969 C2.95871854,13.68 3.02681922,13.8009766 3.09748284,13.9204687 C3.11981693,13.9575781 3.14324943,13.9946875 3.16668192,14.0317969 C3.23624714,14.1416406 3.31130435,14.2481445 3.38709382,14.3539062 C3.41601831,14.3932422 3.44604119,14.432207 3.47643021,14.4711719 C3.55588101,14.5732227 3.63826087,14.6726758 3.72320366,14.7702734 C3.74919908,14.7992187 3.77592677,14.8285352 3.80265446,14.8571094 C3.89858124,14.9613867 3.99816934,15.0619531 4.10141876,15.1591797 C4.13180778,15.1873828 4.16292906,15.2166992 4.19441648,15.2445313 C4.29437071,15.3328516 4.39615561,15.4193164 4.50086957,15.5016992 C4.53308924,15.5269336 4.56604119,15.5532812 4.59935927,15.5777734 C4.70224256,15.6516211 4.80585812,15.7258398 4.91240275,15.7948633 C4.95450801,15.8223242 4.99697941,15.8497852 5.04018307,15.8765039 C5.14855835,15.940332 5.25656751,16.0052734 5.36823799,16.0635352 C5.41217391,16.086543 5.45684211,16.1091797 5.50187643,16.1307031 C5.63148741,16.1908203 5.76073227,16.2509375 5.89327231,16.3040039 C5.93830664,16.3218164 5.98370709,16.34 6.02947368,16.3566992 C6.16567506,16.4056836 6.30187643,16.4554102 6.44210526,16.4928906 C6.48970252,16.50625 6.5376659,16.5203516 6.58599542,16.5325977 C6.72732265,16.565625 6.86828375,16.60125 7.01144165,16.6275977 C7.07478261,16.6391016 7.13885584,16.64875 7.20292906,16.6580273 C7.36549199,16.6806641 7.52915332,16.6966211 7.69354691,16.7062695 C7.75212815,16.7088672 7.81107551,16.7114648 7.87002288,16.7129492 C8.05601831,16.7162891 8.24237986,16.7125781 8.42800915,16.6995898 C8.54077803,16.6917969 8.65354691,16.6799219 8.76558352,16.6643359 C8.94645309,16.6428125 9.12549199,16.6064453 9.3023341,16.5630273 C9.38910755,16.5429883 9.47551487,16.5218359 9.56118993,16.4969727 C9.86398169,16.4119922 10.1594508,16.2988086 10.4439359,16.1633594 C10.5779405,16.1028711 10.7097483,16.0368164 10.8356979,15.9603711 C11.7411442,15.4389844 12.5078261,14.6689648 13.0196796,13.7490234 C13.0940046,13.6217383 13.1602746,13.49 13.2206865,13.3556641 C13.3565217,13.0673242 13.4667277,12.7663672 13.5527689,12.4583594 C13.5776659,12.3715234 13.5985355,12.2832031 13.6186728,12.1948828 C13.6574828,12.0278906 13.6893364,11.859043 13.7116705,11.6887109 C13.7303432,11.5614258 13.7442563,11.4333984 13.7523112,11.3053711 C13.7651259,11.1175977 13.7702517,10.9294531 13.7658581,10.7416797 C13.7643936,10.6823047 13.7618307,10.6229297 13.7592677,10.5639258 C13.7497483,10.3895117 13.7332723,10.2154687 13.7087414,10.0429102 C13.7014188,9.9928125 13.6933638,9.94308594 13.6853089,9.89373047 C13.6596796,9.73935547 13.6270938,9.58683594 13.5893822,9.43542969 C13.5772998,9.38755859 13.5637529,9.34005859 13.5509382,9.29292969 C13.5102975,9.14597656 13.4630664,9.00087891 13.4114416,8.85763672 C13.3956979,8.81533203 13.3795881,8.77339844 13.3634783,8.73146484 C13.3111213,8.59675781 13.25254,8.46501953 13.1910297,8.33439453 C13.1716247,8.29431641 13.1518535,8.25460937 13.1317162,8.21527344 C13.0691076,8.0928125 13.0021053,7.97257812 12.93254,7.85382812 C12.9058124,7.80929687 12.8787185,7.76513672 12.8508924,7.72134766 C12.7827918,7.61595703 12.7113959,7.51316406 12.6381693,7.41185547 C12.6110755,7.37474609 12.5839817,7.33837891 12.5565217,7.30238281 C12.4726773,7.19328125 12.3844394,7.08789062 12.2940046,6.98472656 C12.2793593,6.96802734 12.2500686,6.93462891 12.2350572,6.91792969 C12.1372998,6.81216797 12.0347826,6.71085937 11.9315332,6.61066406 C11.9154233,6.59619141 11.8839359,6.566875 11.8681922,6.55240234 C11.7667735,6.45851562 11.6616934,6.36871094 11.5540503,6.28224609 C11.5185355,6.25367187 11.4826545,6.22621094 11.4467735,6.19912109 C11.3457208,6.12416016 11.241373,6.05365234 11.1377574,5.98240234 C11.0960183,5.95382812 11.0531808,5.92673828 11.0103432,5.90001953 C10.8935469,5.82839844 10.7738215,5.76197266 10.6533638,5.69740234 C10.6141876,5.67662109 10.5753776,5.65658203 10.5358352,5.63728516 C10.4131808,5.5753125 10.2879634,5.51927734 10.1609153,5.46732422 C10.115881,5.44876953 10.0704805,5.43095703 10.0250801,5.41388672 C9.88924485,5.36193359 9.75121281,5.31703125 9.61244851,5.27509766 C9.56521739,5.26099609 9.51798627,5.24726562 9.47038902,5.23427734 C9.30855835,5.19011719 9.14379863,5.15894531 8.97940503,5.12888672 C8.94718535,5.12332031 8.88347826,5.11181641 8.85125858,5.10625 C8.68100686,5.07990234 8.50892449,5.06802734 8.33720824,5.05652344 C8.24457666,5.05132812 8.15231121,5.04650391 8.05967963,5.04242187 C8.05894737,5.14521484 8.05894737,5.24763672 8.0593135,5.35042969 C8.0593135,5.53783203 8.05858124,5.72523437 8.0582151,5.91263672 C8.05784897,5.97349609 8.05748284,6.03472656 8.05784897,6.09595703 C8.05748284,6.28261719 8.0571167,6.46927734 8.05638444,6.6559375 C8.05601831,6.71679687 8.05601831,6.77765625 8.05601831,6.83851562 C8.05565217,7.02480469 8.05528604,7.21072266 8.05491991,7.39664062 C8.05455378,7.4575 8.05418764,7.51873047 8.05455378,7.57958984 C8.05455378,7.65380859 8.05418764,7.72802734 8.05418764,7.80224609 C8.02050343,7.77849609 7.98681922,7.75474609 7.95313501,7.73099609 C7.91066362,7.7009375 7.86782609,7.67125 7.82535469,7.64193359 C7.71734554,7.56623047 7.60970252,7.48978516 7.50169336,7.41445312 C7.46581236,7.38958984 7.43029748,7.36435547 7.39478261,7.33912109 C7.282746,7.26007812 7.16997712,7.18214844 7.05830664,7.10273437 C7.02462243,7.07898437 6.99130435,7.05560547 6.95798627,7.03259766 C6.84668192,6.95503906 6.73684211,6.875625 6.62553776,6.7984375 C6.59002288,6.77357422 6.55487414,6.74908203 6.5197254,6.72458984 C6.41574371,6.65148437 6.31176201,6.57800781 6.20814645,6.50453125 C6.17116705,6.47818359 6.13382151,6.45220703 6.09684211,6.42660156 C5.98773455,6.35126953 5.88009153,6.27408203 5.77135011,6.19800781 C5.73583524,6.17277344 5.70032037,6.14753906 5.66443936,6.12267578 C5.56118993,6.05179687 5.4590389,5.9790625 5.357254,5.90632812 C5.31588101,5.87664062 5.27414188,5.84732422 5.23240275,5.81875 C5.11743707,5.74044922 5.00466819,5.65880859 4.89116705,5.57865234 C4.8604119,5.55712891 4.82965675,5.53560547 4.79926773,5.51445312 C4.68503432,5.43578125 4.57226545,5.35525391 4.4587643,5.27546875 C4.42434783,5.25097656 4.38993135,5.22648437 4.35514874,5.20236328 C4.25226545,5.13148437 4.15084668,5.05875 4.04906178,4.98638672 C4.00768879,4.95707031 3.96631579,4.928125 3.92457666,4.89917969 C3.81839817,4.82533203 3.71295195,4.75037109 3.60713959,4.67652344 C3.57235698,4.65203125 3.5379405,4.62753906 3.50352403,4.60304687 C3.40173913,4.53105469 3.29922197,4.45980469 3.19743707,4.3878125 C3.15496568,4.35775391 3.11249428,4.32769531 3.07002288,4.29800781 C2.9605492,4.22193359 2.85107551,4.14623047 2.74306636,4.06830078 C2.70864989,4.0434375 2.67386728,4.01894531 2.63871854,3.99519531 C2.59661327,3.96699219 2.55414188,3.93953125 2.51130435,3.91244141 C2.82508009,3.67716797 3.15276888,3.46119141 3.46983982,3.23037109 C3.67048055,3.09492187 3.86819222,2.95464844 4.06590389,2.81511719 C4.6579405,2.3928125 5.25656751,1.97978516 5.84860412,1.55748047 C6.05107551,1.42128906 6.24915332,1.27878906 6.44869565,1.13888672 L6.44869565,1.13888672 Z" id="Shape" fill="white" sketch:type="MSShapeGroup"></path>
    </g>
</svg>